{
  "accessors": [
    {
      "bufferView": 2,
      "componentType": 5126,
      "count": 4,
      "max": [
        3.2000083923339844,
        9.3584995269775391,
        3.4502420425415039
      ],
      "min": [
        -3.1999893188476562,
        8.0969209671020508,
        3.0717506408691406
      ],
      "type": "VEC3"
    },
    {
      "bufferView": 2,
      "byteOffset": 48,
      "componentType": 5126,
      "count": 4,
      "max": [
        2.5282909516415404e-20,
        -0.28736048936843872,
        -0.95782256126403809
      ],
      "min": [
        2.5282909516415404e-20,
        -0.28736048936843872,
        -0.95782256126403809
      ],
      "type": "VEC3"
    },
    {
      "bufferView": 3,
      "componentType": 5126,
      "count": 4,
      "max": [
        1,
        7.265309073605805e-21,
        2.4216539613102438e-20,
        -1
      ],
      "min": [
        1,
        7.265309073605805e-21,
        2.4216539613102438e-20,
        -1
      ],
      "type": "VEC4"
    },
    {
      "bufferView": 1,
      "componentType": 5126,
      "count": 4,
      "max": [
        1.0003433227539062,
        0.59867668151855469
      ],
      "min": [
        0.00034332275390625,
        0.39287519454956055
      ],
      "type": "VEC2"
    },
    {
      "bufferView": 0,
      "componentType": 5125,
      "count": 6,
      "max": [
        3
      ],
      "min": [
        0
      ],
      "type": "SCALAR"
    },
    {
      "bufferView": 2,
      "byteOffset": 96,
      "componentType": 5126,
      "count": 1955,
      "max": [
        72.728912353515625,
        91.694000244140625,
        9.6419744491577148
      ],
      "min": [
        -72.728912353515625,
        7.874000072479248,
        -2.9310245513916016
      ],
      "type": "VEC3"
    },
    {
      "bufferView": 2,
      "byteOffset": 23556,
      "componentType": 5126,
      "count": 1955,
      "max": [
        0.98598039150238037,
        1,
        0.9995080828666687
      ],
      "min": [
        -0.98598039150238037,
        -1,
        -0.96036112308502197
      ],
      "type": "VEC3"
    },
    {
      "bufferView": 3,
      "byteOffset": 64,
      "componentType": 5126,
      "count": 1955,
      "max": [
        1,
        0.081104062497615814,
        0.98597228527069092,
        1
      ],
      "min": [
        -0.84752243757247925,
        -0.075952313840389252,
        -0.98597222566604614,
        1
      ],
      "type": "VEC4"
    },
    {
      "bufferView": 0,
      "byteOffset": 24,
      "componentType": 5125,
      "count": 7242,
      "max": [
        1954
      ],
      "min": [
        0
      ],
      "type": "SCALAR"
    },
    {
      "bufferView": 2,
      "byteOffset": 47016,
      "componentType": 5126,
      "count": 512,
      "max": [
        50.799999237060547,
        15.747998237609863,
        19.300998687744141
      ],
      "min": [
        -50.799999237060547,
        -1.4740794102388079e-14,
        -18.425014495849609
      ],
      "type": "VEC3"
    },
    {
      "bufferView": 2,
      "byteOffset": 53160,
      "componentType": 5126,
      "count": 512,
      "max": [
        1,
        0.99985939264297485,
        1
      ],
      "min": [
        -1,
        -1,
        -1
      ],
      "type": "VEC3"
    },
    {
      "bufferView": 3,
      "byteOffset": 31344,
      "componentType": 5126,
      "count": 512,
      "max": [
        1,
        0.99949061870574951,
        1,
        -1
      ],
      "min": [
        -0.52432185411453247,
        -0.93109309673309326,
        -0.99985939264297485,
        -1
      ],
      "type": "VEC4"
    },
    {
      "bufferView": 0,
      "byteOffset": 28992,
      "componentType": 5125,
      "count": 888,
      "max": [
        511
      ],
      "min": [
        0
      ],
      "type": "SCALAR"
    },
    {
      "bufferView": 2,
      "byteOffset": 59304,
      "componentType": 5126,
      "count": 98,
      "max": [
        71.406524658203125,
        89.943748474121094,
        8.9526796340942383
      ],
      "min": [
        -71.488365173339844,
        9.6242513656616211,
        2.9142913818359375
      ],
      "type": "VEC3"
    },
    {
      "bufferView": 2,
      "byteOffset": 60480,
      "componentType": 5126,
      "count": 98,
      "max": [
        0.16685767471790314,
        2.017751594367951e-16,
        -0.9859810471534729
      ],
      "min": [
        -0.16685757040977478,
        1.3477548858369039e-16,
        -1
      ],
      "type": "VEC3"
    },
    {
      "bufferView": 3,
      "byteOffset": 39536,
      "componentType": 5126,
      "count": 98,
      "max": [
        1,
        1.6095116279757349e-06,
        0.16685767471790314,
        -1
      ],
      "min": [
        0.98598098754882812,
        -7.754188118269667e-05,
        -0.16685758531093597,
        -1
      ],
      "type": "VEC4"
    },
    {
      "bufferView": 1,
      "byteOffset": 32,
      "componentType": 5126,
      "count": 98,
      "max": [
        0.99347019195556641,
        0.99529916048049927
      ],
      "min": [
        0.0033771991729736328,
        0.016235530376434326
      ],
      "type": "VEC2"
    },
    {
      "bufferView": 0,
      "byteOffset": 32544,
      "componentType": 5125,
      "count": 288,
      "max": [
        97
      ],
      "min": [
        0
      ],
      "type": "SCALAR"
    }
  ],
  "asset": {
    "extras": {
      "author": "studio lab (https://sketchfab.com/leonlabyk)",
      "license": "SKETCHFAB Standard (https://sketchfab.com/licenses)",
      "source": "https://sketchfab.com/models/2bd0df8fcc814200a43a8043ac6c8813",
      "title": "Samsung TV"
    },
    "generator": "Sketchfab-3.18.6",
    "version": "2.0"
  },
  "bufferViews": [
    {
      "buffer": 0,
      "byteLength": 33696,
      "byteOffset": 0,
      "name": "floatBufferViews",
      "target": 34963
    },
    {
      "buffer": 0,
      "byteLength": 816,
      "byteOffset": 33696,
      "byteStride": 8,
      "name": "floatBufferViews",
      "target": 34962
    },
    {
      "buffer": 0,
      "byteLength": 61656,
      "byteOffset": 34512,
      "byteStride": 12,
      "name": "floatBufferViews",
      "target": 34962
    },
    {
      "buffer": 0,
      "byteLength": 41104,
      "byteOffset": 96168,
      "byteStride": 16,
      "name": "floatBufferViews",
      "target": 34962
    }
  ],
  "buffers": [
    {
      "byteLength": 137272,
      "uri": "scene.bin"
    }
  ],
  "images": [
    {
      "uri": "textures/LogoShader_baseColor.jpeg"
    },
    {
      "uri": "textures/ScreenShader_baseColor.jpeg"
    },
    {
      "uri": "textures/ScreenShader_emissive.jpeg"
    }
  ],
  "materials": [
    {
      "doubleSided": true,
      "emissiveFactor": [
        0,
        0,
        0
      ],
      "name": "LogoShader",
      "pbrMetallicRoughness": {
        "baseColorFactor": [
          1,
          1,
          1,
          1
        ],
        "baseColorTexture": {
          "index": 0,
          "texCoord": 0
        },
        "metallicFactor": 0,
        "roughnessFactor": 0.59999999999999998
      }
    },
    {
      "doubleSided": true,
      "emissiveFactor": [
        0,
        0,
        0
      ],
      "name": "BlackPlasticShader",
      "pbrMetallicRoughness": {
        "baseColorFactor": [
          0,
          0,
          0,
          1
        ],
        "metallicFactor": 0,
        "roughnessFactor": 0.19999999999999996
      }
    },
    {
      "doubleSided": true,
      "emissiveFactor": [
        0,
        0,
        0
      ],
      "name": "ChromeShader",
      "pbrMetallicRoughness": {
        "baseColorFactor": [
          0.65812199999999998,
          0.65812199999999998,
          0.65812199999999998,
          1
        ],
        "metallicFactor": 1,
        "roughnessFactor": 0.34000000000000002
      }
    },
    {
      "doubleSided": true,
      "emissiveFactor": [
        1,
        1,
        1
      ],
      "emissiveTexture": {
        "index": 2,
        "texCoord": 0
      },
      "name": "ScreenShader",
      "pbrMetallicRoughness": {
        "baseColorFactor": [
          1,
          1,
          1,
          1
        ],
        "baseColorTexture": {
          "index": 1,
          "texCoord": 0
        },
        "metallicFactor": 0,
        "roughnessFactor": 0.15000000000000002
      }
    }
  ],
  "meshes": [
    {
      "name": "kCurvedTV_LogoShader_0",
      "primitives": [
        {
          "attributes": {
            "NORMAL": 1,
            "POSITION": 0,
            "TANGENT": 2,
            "TEXCOORD_0": 3
          },
          "indices": 4,
          "material": 0,
          "mode": 4
        }
      ]
    },
    {
      "name": "kCurvedTV_BlackPlasticShader_0",
      "primitives": [
        {
          "attributes": {
            "NORMAL": 6,
            "POSITION": 5,
            "TANGENT": 7
          },
          "indices": 8,
          "material": 1,
          "mode": 4
        }
      ]
    },
    {
      "name": "kCurvedTV_ChromeShader_0",
      "primitives": [
        {
          "attributes": {
            "NORMAL": 10,
            "POSITION": 9,
            "TANGENT": 11
          },
          "indices": 12,
          "material": 2,
          "mode": 4
        }
      ]
    },
    {
      "name": "kCurvedTV_ScreenShader_0",
      "primitives": [
        {
          "attributes": {
            "NORMAL": 14,
            "POSITION": 13,
            "TANGENT": 15,
            "TEXCOORD_0": 16
          },
          "indices": 17,
          "material": 3,
          "mode": 4
        }
      ]
    }
  ],
  "nodes": [
    {
      "children": [
        1
      ],
      "name": "RootNode (gltf orientation matrix)",
      "rotation": [
        -0.70710678118654746,
        -0,
        -0,
        0.70710678118654757
      ]
    },
    {
      "children": [
        2
      ],
      "name": "RootNode (model correction matrix)"
    },
    {
      "children": [
        3
      ],
      "matrix": [
        1,
        0,
        0,
        0,
        0,
        0,
        1,
        0,
        0,
        -1,
        0,
        0,
        0,
        0,
        0,
        1
      ],
      "name": "samsung4k.fbx"
    },
    {
      "children": [
        4
      ],
      "name": "RootNode"
    },
    {
      "children": [
        5,
        6,
        7,
        8
      ],
      "matrix": [
        0.0099999997764825821,
        0,
        0,
        0,
        0,
        0.0099999997764825821,
        0,
        0,
        0,
        0,
        0.0099999997764825821,
        0,
        0,
        0,
        0,
        1
      ],
      "name": "kCurvedTV"
    },
    {
      "mesh": 0,
      "name": "kCurvedTV_LogoShader_0"
    },
    {
      "mesh": 1,
      "name": "kCurvedTV_BlackPlasticShader_0"
    },
    {
      "mesh": 2,
      "name": "kCurvedTV_ChromeShader_0"
    },
    {
      "mesh": 3,
      "name": "kCurvedTV_ScreenShader_0"
    }
  ],
  "samplers": [
    {
      "magFilter": 9729,
      "minFilter": 9987,
      "wrapS": 10497,
      "wrapT": 10497
    }
  ],
  "scene": 0,
  "scenes": [
    {
      "name": "OSG_Scene",
      "nodes": [
        0
      ]
    }
  ],
  "textures": [
    {
      "sampler": 0,
      "source": 0
    },
    {
      "sampler": 0,
      "source": 1
    },
    {
      "sampler": 0,
      "source": 2
    }
  ]
}

